<svg xmlns="http://www.w3.org/2000/svg" viewBox="0 0 24 24" width="24" height="24">
    <path fill="none" d="M0 0H24V24H0z" id="svg-elem-1"></path>
    <path fill="currentColor" id="svg-elem-2"
        d="M 13.717 1.947 l 3.734 1.434 l -0.717 1.867 l -0.934 -0.359 l -0.746 1.945 c 0.779 0.462 1.444 1.094 1.945 1.846 l 1.903 -0.847 l -0.407 -0.914 l 1.827 -0.813 l 1.627 3.654 l -1.827 0.813 l -0.407 -0.913 l -1.902 0.847 c 0.122 0.477 0.187 0.978 0.187 1.493 c 0 0.406 -0.04 0.803 -0.117 1.187 l 1.944 0.746 l 0.358 -0.933 l 1.868 0.717 l -1.434 3.734 l -1.867 -0.717 l 0.358 -0.933 l -1.944 -0.747 c -0.462 0.779 -1.094 1.444 -1.846 1.945 l 0.847 1.903 l 0.914 -0.407 l 0.813 1.827 l -3.654 1.627 l -0.813 -1.827 l 0.913 -0.407 l -0.847 -1.902 c -0.477 0.122 -0.978 0.187 -1.493 0.187 c -0.407 0 -0.804 -0.04 -1.188 -0.118 l -0.746 1.945 l 0.934 0.358 l -0.717 1.868 l -3.734 -1.434 l 0.717 -1.867 l 0.932 0.358 l 0.748 -1.944 C 8.167 16.704 7.502 16.072 7 15.32 l -1.903 0.847 l 0.407 0.914 l -1.827 0.813 l -1.627 -3.654 l 1.827 -0.813 l 0.406 0.914 l 1.903 -0.848 C 6.065 13.016 6 12.515 6 12 c 0 -0.406 0.04 -0.803 0.117 -1.187 l -1.945 -0.746 l -0.357 0.933 l -1.868 -0.717 L 3.381 6.55 l 1.867 0.717 l -0.359 0.933 l 1.945 0.747 C 7.296 8.167 7.928 7.502 8.68 7 l -0.847 -1.903 l -0.914 0.407 l -0.813 -1.827 L 9.76 2.051 l 0.813 1.827 l -0.913 0.407 l 0.847 1.902 C 10.984 6.065 11.485 6 12 6 c 0.406 0 0.803 0.04 1.187 0.117 l 0.745 -1.945 L 13 3.815 l 0.717 -1.868 z M 12 8 c -2.21 0 -4 1.79 -4 4 s 1.79 4 4 4 s 4 -1.79 4 -4 s -1.79 -4 -4 -4 z">
    </path>
    <g transform="scale(0.6 0.6) translate(7.75 7.75)">
        <path fill="currentColor" d="M12 22C6.477 22 2 17.523 2 12S6.477 2 12 2s10 4.477 10 10-4.477 10-10 10zm-1-11H7v2h4v4h2v-4h4v-2h-4V7h-2v4z"/>
    </g>
</svg>