<svg xmlns="http://www.w3.org/2000/svg" viewBox="405.753 465 4224 4314">
  <path d="M 2457 4764 c -247 -53 -555 -208 -780 -392 c -169 -138 -351 -341 -488 -547 c -145 -216 -178 -318 -146 -443 c 59 -226 294 -335 502 -233 c 76 38 112 77 189 208 c 112 190 277 379 436 500 c 105 80 294 174 420 209 c 150 41 220 93 277 204 c 25 49 28 65 28 150 c 0 84 -3 101 -28 150 c -57 111 -150 180 -268 200 c -35 5 -66 10 -69 9 c -3 0 -36 -7 -73 -15 z M 2791 3739 c -76 -15 -134 -50 -217 -133 c -324 -326 -541 -789 -594 -1275 c -16 -143 -8 -451 15 -581 c 80 -448 273 -834 573 -1144 c 106 -110 172 -141 297 -141 c 76 0 99 4 146 26 c 166 78 251 254 205 424 c -19 74 -36 100 -131 210 c -284 328 -412 700 -376 1097 c 32 341 152 612 390 873 c 147 161 169 333 65 491 c -55 83 -135 134 -239 153 c -66 12 -72 12 -134 0 z z M 4103 3290 c -83 -12 -177 -62 -242 -128 c -87 -86 -123 -167 -136 -307 c -9 -91 -37 -155 -89 -203 c -52 -48 -105 -67 -217 -79 c -322 -36 -505 -361 -365 -648 c 59 -121 166 -208 297 -241 c 83 -21 239 -15 369 16 c 517 123 884 560 907 1080 c 5 100 2 137 -11 183 c -65 223 -283 363 -513 327 z M 628 2827 c -229 -97 -295 -375 -132 -565 c 43 -51 129 -118 204 -160 c 225 -126 518 -142 760 -42 c 148 61 294 179 344 277 c 115 228 -39 498 -290 511 c -101 6 -166 -16 -254 -83 c -111 -83 -170 -84 -267 -2 c -72 60 -127 81 -223 84 c -72 3 -94 0 -142 -20 z" fill="currentColor"/>
</svg>