<svg version="1.0" xmlns="http://www.w3.org/2000/svg" width="24" height="32" viewBox="0 0 426.000000 800.000000"
preserveAspectRatio="xMidYMid meet">

<g transform="translate(0.000000,800.000000) scale(0.100000,-0.100000)"
fill="currentColor">
<path d="M2504 7315 c-153 -34 -271 -100 -384 -214 -47 -47 -102 -115 -122
-151 -34 -57 -76 -169 -92 -241 -5 -23 -12 -27 -56 -33 -77 -10 -213 -52 -293
-91 -119 -57 -197 -113 -306 -223 -119 -119 -116 -118 -150 -7 -29 95 -34 170
-17 254 29 139 59 185 232 361 134 137 158 165 164 199 16 89 -49 158 -138
148 -42 -5 -54 -14 -199 -158 -85 -85 -174 -183 -198 -219 -83 -125 -125 -266
-125 -426 0 -164 47 -310 145 -450 l44 -64 -19 -56 c-44 -125 -50 -202 -51
-556 0 -186 -4 -340 -9 -343 -15 -10 -135 35 -185 69 -109 73 -183 173 -219
295 -12 42 -16 101 -16 255 0 111 -5 218 -10 238 -15 53 -64 88 -124 88 -39 0
-52 -5 -84 -34 l-37 -34 -3 -223 c-2 -176 0 -239 13 -303 61 -302 272 -520
580 -599 l90 -23 0 -501 c0 -276 -3 -504 -6 -507 -12 -12 -139 35 -195 74 -72
48 -105 82 -150 157 -64 106 -74 159 -75 392 0 232 -6 263 -58 298 -53 36
-112 32 -159 -11 l-37 -34 -3 -214 c-2 -131 1 -242 8 -288 26 -165 115 -328
243 -445 88 -80 238 -159 346 -181 41 -8 78 -17 82 -20 12 -7 11 -1011 0
-1019 -16 -9 -132 34 -186 69 -107 71 -183 174 -219 295 -12 42 -16 101 -16
255 0 111 -5 218 -10 238 -16 55 -60 88 -121 88 -42 0 -55 -5 -87 -34 l-37
-34 -3 -223 c-3 -247 7 -331 57 -450 99 -237 323 -416 575 -460 59 -10 67 -14
72 -38 29 -136 96 -293 169 -397 25 -36 45 -69 45 -73 0 -13 -108 -58 -168
-70 -72 -15 -135 -14 -211 4 -105 25 -175 70 -298 189 -103 99 -117 109 -157
113 -54 6 -108 -22 -124 -65 -20 -53 -21 -61 -12 -94 14 -48 224 -253 315
-306 242 -141 551 -141 783 2 l67 42 75 -46 c111 -68 207 -108 326 -138 l106
-26 -6 -28 c-19 -97 -120 -226 -224 -288 -103 -60 -155 -70 -382 -70 -107 0
-211 -5 -231 -10 -96 -27 -123 -144 -49 -215 l31 -30 257 0 c253 1 258 1 337
28 215 73 387 225 475 421 15 33 30 75 34 91 23 97 26 105 50 105 43 0 214 48
293 83 142 62 272 157 381 280 25 29 48 53 52 55 13 5 57 -113 70 -185 20
-124 -14 -272 -87 -370 -20 -26 -96 -109 -169 -183 -143 -144 -160 -172 -143
-234 19 -67 86 -107 157 -92 33 8 318 290 371 369 182 269 174 640 -19 895
l-41 53 25 77 c39 125 46 209 49 552 l2 325 35 -3 c89 -7 224 -97 295 -197 81
-113 88 -145 95 -420 6 -263 9 -278 71 -311 60 -31 127 -12 166 45 22 33 23
42 23 248 0 346 -44 485 -208 664 -106 115 -221 182 -387 224 l-90 23 -2 487
-3 488 39 -6 c103 -13 242 -112 313 -221 68 -105 78 -158 78 -397 0 -228 6
-258 55 -297 60 -47 146 -33 185 30 18 30 20 50 20 249 0 253 -12 331 -70 455
-48 104 -76 144 -153 223 -107 110 -255 190 -395 214 -50 9 -64 15 -68 32 -2
11 -3 232 -2 490 l3 470 30 -3 c103 -10 274 -139 333 -250 55 -104 62 -146 62
-366 0 -111 5 -218 10 -238 6 -20 24 -48 41 -62 63 -54 177 -22 200 54 18 58
6 491 -15 565 -84 292 -329 511 -627 559 l-36 6 -12 78 c-24 150 -91 315 -177
440 -24 35 -44 67 -44 71 0 13 108 58 168 70 72 15 135 14 211 -4 106 -25 175
-69 298 -188 103 -100 116 -110 157 -114 89 -10 159 71 136 156 -14 51 -218
251 -315 309 -241 141 -551 140 -784 -3 l-69 -42 -78 50 c-97 62 -211 110
-332 138 l-94 22 6 29 c18 92 112 216 210 280 105 68 158 78 397 78 155 0 218
4 242 14 92 38 108 148 32 215 l-36 31 -227 -1 c-148 -1 -248 -6 -288 -14z"/>
</g>
</svg>
