<svg version="1.0" xmlns="http://www.w3.org/2000/svg"
 width="30" height="30" viewBox="0 0 83.000000 70.000000"
 preserveAspectRatio="xMidYMid meet">

<g transform="translate(0.000000,70.000000) scale(0.100000,-0.100000)"
fill="currentColor" stroke="none">
<path d="M104 655 c-107 -64 -98 -229 16 -282 28 -12 38 -22 34 -33 -4 -8 -12
-35 -18 -60 -11 -41 -15 -45 -47 -48 -45 -5 -59 -18 -59 -56 0 -50 13 -56 126
-56 56 0 109 -3 118 -6 22 -9 20 -41 -4 -54 -25 -13 -26 -30 -2 -30 24 0 52
31 52 57 0 40 -30 53 -126 53 -99 0 -130 6 -137 24 -14 37 2 39 365 43 194 2
359 6 366 8 34 12 -1 91 -80 181 -18 20 -28 40 -24 50 8 22 -18 78 -45 98 -30
20 -88 21 -117 0 -14 -10 -48 -16 -96 -17 l-74 -2 -6 35 c-18 101 -147 152
-242 95z m149 -16 c80 -44 94 -157 26 -220 -77 -72 -200 -29 -224 79 -9 41 23
110 62 134 32 20 104 23 136 7z m386 -135 c25 -32 26 -52 5 -83 -12 -17 -14
-25 -5 -34 9 -9 14 -9 20 1 8 14 29 -5 80 -77 57 -81 56 -81 -144 -81 -96 0
-175 2 -175 5 0 3 7 17 16 31 20 30 14 108 -10 132 -22 22 -32 7 -16 -23 22
-40 17 -83 -14 -113 -25 -25 -33 -27 -133 -30 l-106 -4 7 42 c10 62 22 78 68
91 46 12 104 65 114 104 6 26 29 35 90 35 l41 0 6 -46 c5 -45 29 -85 43 -71 4
4 2 18 -4 32 -28 62 0 115 62 115 25 0 40 -7 55 -26z"/>
<path d="M121 582 c-29 -31 -31 -37 -18 -47 20 -15 32 -61 18 -70 -19 -11 -1
-26 19 -15 21 11 50 3 65 -18 9 -11 18 -6 49 23 36 33 37 37 21 49 -12 8 -16
19 -12 30 6 15 3 17 -23 11 -33 -7 -35 -4 -20 26 9 16 7 19 -14 19 -13 0 -26
7 -30 15 -8 21 -16 17 -55 -23z m62 -43 c3 -10 17 -23 31 -29 44 -16 27 -47
-19 -36 -27 7 -60 59 -51 82 7 18 33 8 39 -17z"/>
<path d="M651 327 c-9 -11 -8 -17 4 -27 12 -10 16 -9 21 5 9 23 -10 40 -25 22z"/>
</g>
</svg>
